<svg xmlns="http://www.w3.org/2000/svg" width="282" height="153" viewBox="0 0 282 153"><g fill="none" fill-rule="evenodd" transform="translate(1)"><ellipse cx="140.95" cy="143.209" fill="#F2F2F2" fill-rule="nonzero" rx="137.523" ry="9.104"/><path fill="#2F2E41" fill-rule="nonzero" d="M135.679 43.54c-22.406 0-38.494 14.376-38.494 47.918 0 38.015 16.088 48.077 38.494 48.077s39.452-11.02 39.452-48.077c0-39.612-17.046-47.917-39.452-47.917zm.147 83.377c-15.519 0-23.627-9.104-23.627-35.434 0-23.232 8.44-35.484 23.96-35.484 15.518 0 23.958 8.048 23.958 35.484 0 25.666-8.772 35.434-24.29 35.434z"/><path fill="#49A5A2" fill-rule="nonzero" d="M83.768 113.021h-9.264v-27.28a5.464 5.464 0 0 0-5.463-5.464h-2.17a5.465 5.465 0 0 0-5.464 5.464v27.28h-26.13a3.118 3.118 0 0 1-2.759-4.576L60.175 56.1a5.461 5.461 0 0 0-2.498-7.492l-1.632-.771a5.463 5.463 0 0 0-7.151 2.364l-33.731 63.1a7.403 7.403 0 0 0 1.295 8.731 7.404 7.404 0 0 0 5.238 2.17h39.71v17.25c0 1.737.69 3.403 1.919 4.63a6.546 6.546 0 0 0 9.261.001 6.549 6.549 0 0 0 1.918-4.63v-17.251h9.264a5.59 5.59 0 1 0 0-11.18zm171.545 0h-9.264v-27.28a5.464 5.464 0 0 0-5.463-5.464h-2.171a5.462 5.462 0 0 0-5.463 5.464v27.28H206.82a3.119 3.119 0 0 1-2.758-4.576L231.72 56.1a5.465 5.465 0 0 0-2.498-7.492l-1.633-.771a5.462 5.462 0 0 0-7.15 2.364l-33.731 63.1a7.408 7.408 0 0 0 6.533 10.901h39.71v17.25a6.55 6.55 0 0 0 13.098 0v-17.25h9.264a5.59 5.59 0 0 0 0-11.18z"/><path stroke="#3F3D56" d="M86.324 109.827H77.06v-27.28a5.465 5.465 0 0 0-5.463-5.464h-2.171a5.463 5.463 0 0 0-5.464 5.463v27.28h-26.13a3.12 3.12 0 0 1-2.758-4.575L62.73 52.906a5.461 5.461 0 0 0-2.497-7.493l-1.633-.77a5.46 5.46 0 0 0-7.15 2.364l-33.732 63.1a7.407 7.407 0 0 0 6.534 10.9h39.71v17.25a6.55 6.55 0 0 0 6.549 6.549 6.549 6.549 0 0 0 6.549-6.548v-17.25h9.264a5.593 5.593 0 0 0 5.59-5.591 5.59 5.59 0 0 0-5.59-5.59zm173.781 0h-9.264v-27.28a5.464 5.464 0 0 0-5.464-5.464h-2.17a5.466 5.466 0 0 0-5.464 5.463v27.28h-26.13a3.12 3.12 0 0 1-2.758-4.575l27.656-52.345a5.465 5.465 0 0 0-2.497-7.493l-1.633-.77a5.462 5.462 0 0 0-7.151 2.364l-33.73 63.1a7.408 7.408 0 0 0 6.533 10.9h39.71v17.25a6.55 6.55 0 1 0 13.098 0v-17.25h9.264a5.59 5.59 0 0 0 5.59-5.59 5.59 5.59 0 0 0-5.59-5.59zM140.79 40.666c-22.406 0-38.494 14.375-38.494 47.917 0 38.015 16.088 48.077 38.494 48.077s39.452-11.02 39.452-48.077c0-39.612-17.046-47.917-39.452-47.917zm.147 83.376c-15.519 0-23.626-9.105-23.626-35.434 0-23.232 8.44-35.484 23.958-35.484 15.52 0 23.96 8.048 23.96 35.484 0 25.666-8.772 35.434-24.292 35.434z"/><circle cx="122.83" cy="4.758" r="3.363" fill="#2F2E41" fill-rule="nonzero"/><ellipse cx="131.034" cy="12.223" fill="#2F2E41" fill-rule="nonzero" rx="9.434" ry="12.223"/><path fill="#000" fill-rule="nonzero" d="M131.034 20.755c-4.726 0-8.64-4.503-9.327-10.378-.072.613-.107 1.23-.107 1.846 0 6.75 4.223 12.223 9.434 12.223 5.21 0 9.434-5.472 9.434-12.223 0-.617-.036-1.233-.107-1.846-.687 5.875-4.601 10.378-9.327 10.378z" opacity=".1"/><path fill="#3F3D56" fill-rule="nonzero" d="M150.23 48.02c-.202.832-1.075 1.499-2.043 1.965-2.034.979-4.543 1.271-6.976 1.37-.621.037-1.244.026-1.863-.035a5.352 5.352 0 0 1-3.194-1.468.44.44 0 0 1 .011-.742c1.296-1.423 3.458-2.295 5.636-2.924 1.652-.476 4.532-1.71 6.333-1.544 1.744.162 2.353 2.326 2.097 3.377z"/><path fill="#000" fill-rule="nonzero" d="M150.23 48.02c-.202.832-1.075 1.499-2.043 1.965-2.034.979-4.543 1.271-6.976 1.37-.621.037-1.244.026-1.863-.035a5.352 5.352 0 0 1-3.194-1.468.44.44 0 0 1 .011-.742c1.296-1.423 3.458-2.295 5.636-2.924 1.652-.476 4.532-1.71 6.333-1.544 1.744.162 2.353 2.326 2.097 3.377z" opacity=".1"/><path fill="#3F3D56" fill-rule="nonzero" d="M124.369 41.797a5.162 5.162 0 0 0-.313 3.93 6.87 6.87 0 0 0 2.302 3.258c2.632 2.11 6.254 2.4 9.627 2.37a74.047 74.047 0 0 0 8.84-.605 10.55 10.55 0 0 0 2.867-.666c1.101-.476 2.069-1.35 2.46-2.484.392-1.133.114-2.521-.817-3.278-.817-.664-1.945-.756-2.997-.82l-6.02-.36c.595-.603 1.387-.943 2.111-1.38.961-.581 1.6-1.556 2.298-2.434a33.576 33.576 0 0 1 3.504-3.602c.195 1.123.906 2.046 1.743 2.822.837.775 1.801 1.4 2.67 2.137 2.107 1.788 3.623 4.215 5.838 5.866a11.415 11.415 0 0 0 4.184-2.088l-.86-1.56c-.072-.16-.184-.3-.325-.405-.244-.15-.558-.072-.84-.115-.757-.113-1.087-.986-1.384-1.691-.815-1.935-2.374-3.436-3.707-5.059a25.61 25.61 0 0 1-2.606-3.838c-.447-.809-.857-1.65-1.464-2.347-.607-.697-1.458-1.245-2.383-1.247-.816-.001-1.57.413-2.271.83a60.063 60.063 0 0 0-6.161 4.197c-1.028.799-2.05 1.642-3.256 2.131-.508.206-1.043.347-1.53.598-.854.44-1.501 1.182-2.198 1.842-2.487 2.352-5.891 3.876-9.312 3.998z"/><path fill="#FBBEBE" fill-rule="nonzero" d="M136.955 25.053a6.203 6.203 0 0 1-.452 2.095 2.622 2.622 0 0 1-1.504 1.453c-.478.128-.98.144-1.466.047a2.827 2.827 0 0 1-1.194-.407c-.565-.388-.846-1.08-.949-1.758-.102-.676-.056-1.368-.122-2.05a11.163 11.163 0 0 0-.313-1.63l-.134-.533c-.043-.177-.086-.354-.125-.532-.037-.166-.07-.333-.099-.502a6.776 6.776 0 0 1-.06-.428 4.857 4.857 0 0 0-.211-1.254 3.814 3.814 0 0 0-.44-.744 5.159 5.159 0 0 1-.213-.324 1.531 1.531 0 0 1-.254-.977.767.767 0 0 1 .061-.215c.15-.04.27-.153.32-.3a.88.88 0 0 0-.038-.463 2.923 2.923 0 0 0-.25-.597c-.07-.124-.303-.349-.305-.492-.003-.287.558-.518.786-.631a4.366 4.366 0 0 1 2.24-.455c.497.034 1.035.186 1.31.602.245.375.212.86.318 1.296.01.064.037.123.077.173.054.05.121.08.193.09a1.24 1.24 0 0 0 .467 0c.192-.035.373-.114.53-.229.102-.027.204-.05.308-.066l.012-.003c.41 1.297.464 2.688.8 4.008.167.657.406 1.306.44 1.982l.004.09c.004.218-.013.437-.004.654.003.097.014.194.033.29.037.154.083.306.137.454l.003.008c.015.047.03.096.042.144.01.035.017.07.024.105v.003c.062.362.07.731.028 1.096z"/><circle cx="131.198" cy="11.731" r="4.84" fill="#FBBEBE" fill-rule="nonzero"/><path fill="#FBBEBE" fill-rule="nonzero" d="M161.926 38.102a7.941 7.941 0 0 0-1.365-3.677l.378 2.239a.837.837 0 0 1-.878-.27 2.677 2.677 0 0 1-.46-.854 17.651 17.651 0 0 0-2.14-3.842c-3.082-.256-6.128-1.534-8.837-3.023-2.71-1.488-5.247-3.272-7.922-4.823-.463-.28-.946-.527-1.445-.739-.837-.335-1.776-.51-2.57-.904a3.253 3.253 0 0 1-.909-.646 5.297 5.297 0 0 1-.927-1.552c-.426-.942-.578-2.078-1.003-3.02.196-.182.415-.337.652-.46h.001l.104-.052a3.148 3.148 0 0 1 .831-.257l.012-.003c.48-.078.97-.04 1.431.113.675.228 1.243.684 1.81 1.114.921.65 1.804 1.35 2.646 2.099.467.448.894.94 1.397 1.347.418.322.858.614 1.318.874l8.164 4.862c.921.549 1.844 1.097 2.744 1.678 1.369.883 2.688 1.84 4.006 2.795l2.33 1.69c.255.162.478.368.66.61.161.273.26.579.293.895a8.19 8.19 0 0 1-.32 3.806z"/><path fill="#49A5A2" fill-rule="nonzero" d="M138.155 28.693c-.326 1.465-1.806 2.35-2.58 3.636-.961 1.597-.57 3.452-.208 5.28-.66.57-1.32 1.138-1.98 1.706-.364.313-.728.627-1.12.903-.572.384-1.17.727-1.789 1.028l-1.752.901a8.351 8.351 0 0 1-1.715.727c-1.151.295-2.374.089-3.512-.254a1.549 1.549 0 0 1-.384-.156.638.638 0 0 1-.182-.165 1.018 1.018 0 0 1-.116-.662c.116-1.916.584-3.793 1.05-5.655a22.36 22.36 0 0 1 1.004-3.279c.41-.913.882-1.797 1.412-2.646a17.804 17.804 0 0 1 2.067-3.002 4.81 4.81 0 0 0 .958-1.235c.292-.665.18-1.427.238-2.15.045-.544.19-1.075.426-1.566v-.001c.126-.265.279-.517.455-.752l.238.556.156.363.2.466.573 1.333c.206.56.5 1.082.87 1.55a1.693 1.693 0 0 0 2.899-.223 5.55 5.55 0 0 0 .593-1.567c.162-.67.184-1.365.065-2.043-.197-1.306-.753-2.64-1.156-3.853a3.883 3.883 0 0 1-.282-1.27.892.892 0 0 1 .015-.146l.007-.038c.169-.079.343-.143.523-.19.102-.028.204-.05.308-.067.355 1.923.71 3.845 1.067 5.768l.025.136c.051.276.103.552.16.827.052.249.108.498.17.744l.003.008c.02.084.043.166.066.25v.002c.064.226.135.45.214.672.482 1.335 1.323 2.679 1.014 4.064z"/><path fill="#3F3D56" fill-rule="nonzero" d="M157.798 49.272c-.015.282.04.563.159.82.303.553 1.03.679 1.659.73 3.674.303 7.37.19 11.019-.335.198-.014.39-.073.56-.174.52-.364.2-1.25-.367-1.534-.566-.284-1.239-.216-1.86-.338a5.854 5.854 0 0 1-1.741-.755 89.555 89.555 0 0 1-3.727-2.266c-.728-.467-1.588-.967-2.408-.69-2.223.753-3.309 2.144-3.294 4.542z"/><path fill="#FBBEBE" fill-rule="nonzero" d="M130.714 21.636a1.544 1.544 0 0 1-.018.102l-.03.169c-.102.52-.227 1.039-.37 1.554-.395 1.423-.922 2.824-1.445 4.204l-4.215 11.1c-.354.932-.707 1.864-1.11 2.778l-.411.92c-.494 1.11-.968 2.257-1.126 3.438a7.145 7.145 0 0 0-.05 2.357c.158.774.628 1.53 1.364 1.817.359.14.873.328.775.701-.053.205-.286.306-.496.34a1.902 1.902 0 0 1-1.555-.448c-.393-.349-.695-.89-1.217-.95-.362-.038-.695.178-1.027.33-1.352.618-2.927.185-4.347-.254.112-.575.69-.954 1.263-1.069.573-.115 1.166-.033 1.751-.049a.918.918 0 0 0 .533-.137.972.972 0 0 0 .287-.49c.377-1.117.657-2.263.837-3.428.189-1.216.268-2.452.537-3.654.209-.937.532-1.845.81-2.766a58.738 58.738 0 0 0 1.319-5.755c.173-.806.297-1.622.371-2.443.047-.68.025-1.365.09-2.043.11-.883.295-1.754.551-2.606l.752-2.787c.372-1.374.77-2.801 1.712-3.87a3.638 3.638 0 0 1 2.615-1.248 2.592 2.592 0 0 1 .646.083c.199.052.39.13.567.234.29-.184.438-.12.63.165.17.301.25.645.23.99.017.91-.058 1.82-.223 2.715z"/><path fill="#49A5A2" fill-rule="nonzero" d="m131.034 22.724-.013.012-.066.066-.66.66-.323-1.358-1.108-4.655c.187 0 .373.02.555.06a.767.767 0 0 1 .039-.157l.052.18.376 1.278.711 2.426.117.4.32 1.088z"/><path fill="#2F2E41" fill-rule="nonzero" d="M135.219 7.874A3.282 3.282 0 0 1 133.9 10.5a3.263 3.263 0 0 1-1.965.658h-3.936a3.282 3.282 0 0 1 0-6.565h3.936a3.293 3.293 0 0 1 3.284 3.281z"/><circle cx="138.909" cy="4.758" r="3.363" fill="#2F2E41" fill-rule="nonzero"/><path fill="#000" fill-rule="nonzero" d="m138.827 1.395-.123.003a3.361 3.361 0 0 1 0 6.72 3.363 3.363 0 1 0 .123-6.723zm-15.997 0 .123.003a3.361 3.361 0 0 0 0 6.72 3.363 3.363 0 1 1-.123-6.723zM133.9 10.5a3.263 3.263 0 0 1-1.965.658h-3.936a3.26 3.26 0 0 1-1.964-.658h7.865z" opacity=".1"/><path fill="#FBBEBE" fill-rule="nonzero" d="M159.315 34.871s.848 2.443 1.624 1.793l-.619-3.194-1.005 1.401z"/><path fill="#57B894" fill-rule="nonzero" d="M262.497 109.38a5.427 5.427 0 0 0 6.487-7.924 5.425 5.425 0 0 0-5.764-2.482l.135 2.792-1.32-2.393a5.4 5.4 0 0 0-2.786 3.056 5.424 5.424 0 0 0 3.248 6.951z"/><path stroke="#3F3D56" d="M269.035 141.771c-.466-2.375 1.555-4.48 3.551-5.85 1.996-1.368 4.33-2.713 5.01-5.035.98-3.338-1.937-6.396-4.206-9.032a32.643 32.643 0 0 1-4.308-6.402c-.472-.921-.906-1.884-1.03-2.911-.18-1.48.296-2.952.775-4.364 1.595-4.701 3.3-9.364 5.117-13.987"/><path stroke="#3F3D56" d="M262.72 108.66a5.426 5.426 0 1 0 .723-10.405l.136 2.792-1.321-2.393a5.407 5.407 0 0 0-2.786 3.056 5.426 5.426 0 0 0 3.248 6.951z"/><path fill="#57B894" fill-rule="nonzero" d="M268.372 93.226a5.417 5.417 0 0 1 3.905-3.44l.447 2.654.828-2.788a5.424 5.424 0 0 1 3.001 9.89 5.427 5.427 0 0 1-8.181-6.316z"/><path stroke="#3F3D56" d="M268.67 92.267a5.417 5.417 0 0 1 3.905-3.44l.447 2.655.828-2.789a5.424 5.424 0 0 1 3.001 9.89 5.425 5.425 0 0 1-8.181-6.316z"/><path fill="#57B894" fill-rule="nonzero" d="M272.437 121.908a5.425 5.425 0 0 0 4.802-9.652l-.636 2.143-.452-2.687-.014-.005a5.424 5.424 0 0 0-7.194 6.048 5.42 5.42 0 0 0 3.494 4.153z"/><path stroke="#3F3D56" d="M272.695 120.937a5.426 5.426 0 0 0 4.802-9.652l-.636 2.143-.452-2.687-.013-.005a5.427 5.427 0 0 0-7.195 6.048 5.422 5.422 0 0 0 3.494 4.153z"/><path fill="#57B894" fill-rule="nonzero" d="M266.788 130.919a5.423 5.423 0 1 0 1.045-4.249l2.418 3.638-3.303-1.93a5.383 5.383 0 0 0-.16 2.54z"/><path stroke="#3F3D56" d="M267.012 130.2a5.423 5.423 0 1 0 1.045-4.249l2.418 3.638-3.303-1.93a5.37 5.37 0 0 0-.16 2.54z"/><path fill="#57B894" fill-rule="nonzero" d="M2.348 122.597a3.564 3.564 0 0 0 4.262-5.205 3.566 3.566 0 0 0-3.787-1.632l.09 1.835-.869-1.572a3.55 3.55 0 0 0-2.035 2.972 3.562 3.562 0 0 0 2.34 3.602z"/><path stroke="#3F3D56" d="M6.644 143.88c-.307-1.561 1.021-2.945 2.333-3.844 1.312-.9 2.844-1.783 3.292-3.309.643-2.193-1.273-4.202-2.764-5.934a21.42 21.42 0 0 1-2.83-4.206 5.77 5.77 0 0 1-.677-1.913c-.118-.972.194-1.94.509-2.867a207.71 207.71 0 0 1 3.362-9.19"/><path stroke="#3F3D56" d="M2.495 122.125a3.566 3.566 0 1 0 .475-6.837l.09 1.835-.869-1.573a3.553 3.553 0 0 0-2.035 2.973 3.563 3.563 0 0 0 2.34 3.602z"/><path fill="#57B894" fill-rule="nonzero" d="M6.208 111.984a3.558 3.558 0 0 1 2.566-2.26l.294 1.744.544-1.832a3.564 3.564 0 1 1-3.404 2.348z"/><path stroke="#3F3D56" d="M6.404 111.354a3.557 3.557 0 0 1 2.566-2.26l.293 1.744.544-1.832a3.566 3.566 0 0 1 1.972 6.498 3.566 3.566 0 0 1-5.375-4.15z"/><path fill="#57B894" fill-rule="nonzero" d="M8.88 130.829a3.565 3.565 0 0 0 3.154-6.342l-.418 1.408-.297-1.765-.009-.003a3.564 3.564 0 1 0-2.431 6.702z"/><path stroke="#3F3D56" d="M9.049 130.19a3.564 3.564 0 0 0 3.155-6.341l-.418 1.408-.297-1.765-.01-.003a3.564 3.564 0 1 0-2.43 6.702z"/><path fill="#57B894" fill-rule="nonzero" d="M5.168 136.749a3.562 3.562 0 1 0 .687-2.792l1.588 2.391-2.17-1.269a3.526 3.526 0 0 0-.105 1.67z"/><path stroke="#3F3D56" d="M5.315 136.277a3.562 3.562 0 1 0 .687-2.792l1.588 2.39-2.17-1.268a3.513 3.513 0 0 0-.105 1.67z"/><ellipse cx="125.386" cy="83.196" fill="#2F2E41" fill-rule="nonzero" rx="4.432" ry="5.736"/><ellipse cx="149.502" cy="83.326" fill="#2F2E41" fill-rule="nonzero" rx="4.432" ry="5.736"/><path fill="#2F2E41" fill-rule="nonzero" d="M146.113 100.272c0 2.592-3.62 4.693-8.082 4.693-4.464 0-8.082-2.101-8.082-4.693 0-2.244 2.714-4.122 6.34-4.58a13.01 13.01 0 0 1 1.742-.113c.975-.003 1.949.102 2.901.313 3.03.676 5.18 2.383 5.18 4.38z"/><ellipse cx="126.429" cy="81.892" stroke="#3F3D56" rx="4.432" ry="5.736"/><ellipse cx="150.545" cy="82.023" stroke="#3F3D56" rx="4.432" ry="5.736"/><ellipse cx="139.073" cy="98.969" stroke="#3F3D56" rx="8.082" ry="4.693"/><path fill="#FFF" fill-rule="nonzero" d="M141.029 96.283a1.29 1.29 0 0 1-.344.885 1.137 1.137 0 0 1-.83.367h-2.607a1.217 1.217 0 0 1-1.173-1.252 1.276 1.276 0 0 1 .214-.714 12.229 12.229 0 0 1 1.742-.12 12.43 12.43 0 0 1 2.901.334c.065.159.097.329.097.5z"/><circle cx="126.429" cy="80.328" r="1.304" fill="#FFF" fill-rule="nonzero"/><circle cx="150.675" cy="80.328" r="1.304" fill="#FFF" fill-rule="nonzero"/><circle cx="151.978" cy="92.581" r="1.304" fill="#49A5A2" fill-rule="nonzero" opacity=".3"/><circle cx="120.172" cy="92.581" r="1.304" fill="#49A5A2" fill-rule="nonzero" opacity=".3"/></g></svg>